# AST/ASF file generated using VICON BodyLanguage
# -----------------------------------------------
:version 1.10
:name VICON
:units
  mass 1.0
  length 0.45
  angle deg
:documentation
   .ast/.asf automatically generated from VICON data using
   VICON BodyBuilder and BodyLanguage model FoxedUp or BRILLIANT.MOD
:root
   order TX TY TZ RX RY RZ
   axis XYZ
   position 0 0 0  
   orientation 0 0 0 
:bonedata
  begin
     id 1 
     name lhipjoint
     direction 0.606768 -0.715223 0.346827 
     length 2.41543 
     axis 0 0 0  XYZ
  end
  begin
     id 2 
     name lfemur
     direction 0.34202 -0.939693 0  
     length 7.2778  
     axis 0 0 20  XYZ
    dof rx ry rz
    limits (-160.0 20.0)
           (-70.0 70.0)
           (-60.0 70.0)
  end
  begin
     id 3 
     name ltibia
     direction 0.34202 -0.939693 0   
     length 7.61811   
     axis 0 0 20   XYZ
    dof rx
    limits (-10.0 170.0)
  end
  begin
     id 4 
     name lfoot
     direction 0.0823924 -0.226371 0.97055   
     length 2.33618   
     axis -90 7.62852e-016 20   XYZ
    dof rx rz
    limits (-45.0 90.0)
           (-70.0 20.0)
  end
  begin
     id 5 
     name ltoes
     direction 1.53554e-011 -4.21934e-011 1   
     length 1.17015   
     axis -90 7.62852e-016 20   XYZ
    dof rx
    limits (-90.0 20.0)
  end
  begin
     id 6 
     name rhipjoint
     direction -0.6077 -0.714582 0.346516   
     length 2.4176  
     axis 0 0 0  XYZ 
  end
  begin
     id 7 
     name rfemur
     direction -0.34202 -0.939693 0   
     length 7.28127   
     axis 0 0 -20   XYZ
    dof rx ry rz
    limits (-160.0 20.0)
           (-70.0 70.0)
           (-70.0 60.0)
  end
  begin
     id 8 
     name rtibia
     direction -0.34202 -0.939693 0   
     length 7.77648   
     axis 0 0 -20   XYZ
    dof rx
    limits (-10.0 170.0)
 end
 begin
     id 9 
     name rfoot
     direction -0.0809463 -0.222398 0.97159   
     length 2.37533  
     axis -90 -7.62852e-016 -20   XYZ
    dof rx rz
    limits (-45.0 90.0)
           (-20.0 70.0)
  end
  begin
     id 10 
     name rtoes
     direction -1.53568e-011 -4.21714e-011 1   
     length 1.18972   
     axis -90 -7.62852e-016 -20   XYZ
    dof rx
    limits (-90.0 20.0)
  end
  begin
     id 11 
     name lowerback
     direction 0.010968 0.991932 -0.126297   
     length 2.21698   
     axis 0 0 0   XYZ
    dof rx ry rz
    limits (-20.0 45.0)
           (-30.0 30.0)
           (-30.0 30.0)
  end
  begin
     id 12 
     name upperback
     direction 0.0167007 0.997503 -0.0686276   
     length 2.22371   
     axis 0 0 0   XYZ
    dof rx ry rz
    limits (-20.0 45.0)
           (-30.0 30.0)
           (-30.0 30.0)
  end
  begin
     id 13 
     name thorax
     direction 0.0111721 0.999885 -0.0102878   
     length 2.25242   
     axis 0 0 0   XYZ
    dof rx ry rz
    limits (-20.0 45.0)
           (-30.0 30.0)
           (-30.0 30.0)
  end
  begin
     id 14 
     name lowerneck
     direction -0.0120265 0.990428 0.137508   
     length 1.57674   
     axis 0 0 0   XYZ
    dof rx ry rz
    limits (-20.0 45.0)
           (-30.0 30.0)
           (-30.0 30.0)
  end
  begin
     id 15 
     name upperneck
     direction 0.0175669 0.998907 0.0433089   
     length 1.5618   
     axis 0 0 0   XYZ
    dof rx ry rz
    limits (-20.0 45.0)
           (-30.0 30.0)
           (-30.0 30.0)
  end
  begin
     id 16
     name head
     direction 0.00754609 0.99997 0.00185367  
     length 1.60579  
     axis 0 0 0   XYZ
    dof rx ry rz
    limits (-20.0 45.0)
           (-30.0 30.0)
           (-30.0 30.0)
  end
  begin
     id 17 
     name lclavicle
     direction 0.885866 0.429166 -0.176231  
     length 3.44967  
     axis 0 0 0   XYZ
    dof ry rz
    limits (-20.0 10.0)
           (0.0 20.0)
  end
  begin
     id 18 
     name lhumerus
     direction 1 -4.48973e-011 -1.90255e-027   
     length 5.20607   
     axis 180 -30 -90   XYZ
    dof rx ry rz
    limits (-60.0 90.0)
           (-90.0 90.0)
           (-90.0 90.0)
  end
  begin
     id 19
     name lradius
     direction 1 -4.48956e-011 9.87925e-027   
     length 3.39961   
     axis 180 -30 -90   XYZ
    dof rx
    limits (-10.0 170.0)
  end
  begin
     id 20
     name lwrist
     direction 1 -4.48985e-011 1.73247e-026   
     length 1.6998   
     axis -9.60847e-015 90 90   XYZ
    dof ry
    limits (-180.0 0.0)
 end
  begin
     id 21 
     name lhand
     direction 1 -4.48798e-011 3.46119e-026   
     length 0.519693   
     axis -2.21073e-014 90 90   XYZ
    dof rx rz
    limits (-90.0 90.0)
           (-45.0 45.0)
  end
  begin
     id 22 
     name lfingers
     direction 1 -4.48938e-011 6.92797e-026   
     length 0.41899   
     axis -4.42155e-014 90 90   XYZ
    dof rx
    limits (0.0 90.0)
  end
  begin
     id 23
     name lthumb
     direction 0.707107 -6.34952e-011 0.707107   
     length 0.601588   
     axis -90 45 6.0103e-014   XYZ
    dof rx rz
    limits (-45.0 45.0)
           (-45.0 45.0)
  end
  begin
     id 24 
     name rclavicle
     direction -0.866736 0.456792 -0.200276   
     length 3.45032  
     axis 0 0 0   XYZ 
    dof ry rz
    limits (-10.0 20.0)
           (-20.0 0.0)
  end
  begin
     id 25 
     name rhumerus
     direction -1 -4.4897e-011 8.65094e-028  
     length 5.32214   
     axis 180 30 90   XYZ
    dof rx ry rz
    limits (-90.0 60.0)
           (-90.0 90.0)
           (-90.0 90.0)
  end
  begin
     id 26 
     name rradius
     direction -1 -4.48987e-011 1.08427e-026   
     length 3.51208   
     axis 180 30 90   XYZ
    dof rx
    limits (-10.0 170.0)
  end
  begin
     id 27 
     name rwrist
     direction -1 -4.48961e-011 1.73222e-026   
     length 1.75604   
     axis -9.60847e-015 -90 -90   XYZ
    dof ry
    limits (-180.0 0.0)
  end
  begin
     id 28
     name rhand
     direction -1 -4.48895e-011 3.46314e-026   
     length 0.586681   
     axis -2.21073e-014 -90 -90   XYZ
    dof rx rz
    limits (-90.0 90.0)
           (-45.0 45.0)
  end
  begin
     id 29
     name rfingers
     direction -1 -4.48968e-011 6.92916e-026   
     length 0.472997   
     axis -4.42155e-014 -90 -90   XYZ
    dof rx
    limits (0.0 90.0)
  end
  begin
     id 30
     name rthumb
     direction -0.707107 -6.34848e-011 0.707107   
     length 0.679133   
     axis -90 -45 -6.0103e-014   XYZ
    dof rx rz
    limits (-45.0 45.0)
           (-45.0 45.0)
  end
:hierarchy
  begin
    root lhipjoint rhipjoint lowerback
    lhipjoint lfemur
    lfemur ltibia
    ltibia lfoot
    lfoot ltoes
    rhipjoint rfemur
    rfemur rtibia
    rtibia rfoot
    rfoot rtoes
    lowerback upperback
    upperback thorax
    thorax lowerneck lclavicle rclavicle
    lowerneck upperneck
    upperneck head
    lclavicle lhumerus
    lhumerus lradius
    lradius lwrist
    lwrist lhand lthumb
    lhand lfingers
    rclavicle rhumerus
    rhumerus rradius
    rradius rwrist
    rwrist rhand rthumb
    rhand rfingers
  end

#!OML:ASF H:\Dans Jumps\Project 1\Capture day 1\Session 1\subject.ASF
:FULLY-SPECIFIED
:DEGREES
1
root 0.398156 17.6086 -13.9031 6.09674 -1.18307 -1.34273
lowerback -3.00667 -0.803488 0.333321
upperback 3.27307 -1.16901 1.65835
thorax 5.09866 -0.60177 1.44335
lowerneck -12.405 0.757238 -1.88228
upperneck 34.9902 1.70831 -0.264144
head 13.9653 0.444422 0.484253
rclavicle -1.03865e-014 1.15295e-014
rhumerus -24.0304 -13.7183 -83.0728
rradius 23.9488
rwrist 31.8915
rhand -19.9746 -26.9779
rfingers 7.12502
rthumb 6.36431 -56.8623
lclavicle -1.03865e-014 1.15295e-014
lhumerus -20.0499 -7.12499 92.6934
lradius 19.5504
lwrist 4.07791
lhand -26.3009 -4.2864
lfingers 7.12502
lthumb 0.255094 25.6932
rfemur -12.5308 -3.65458 19.9146
rtibia 20.5822
rfoot -13.0428 -0.320157
rtoes 18.2355
lfemur -10.7506 6.84723 -18.0311
ltibia 17.563
lfoot -10.9931 4.01439
ltoes 2.89087
2
root 0.397415 17.6084 -13.9036 6.09216 -1.17334 -1.35398
lowerback -3.01177 -0.793913 0.336712
upperback 3.27869 -1.15661 1.65931
thorax 5.10711 -0.595532 1.44329
lowerneck -12.4217 0.755224 -1.86922
upperneck 34.987 1.71067 -0.286632
head 13.9681 0.444286 0.473402
rclavicle 8.29926e-015 -3.97569e-015
rhumerus -24.036 -13.7073 -83.0771
rradius 23.9776
rwrist 31.851
rhand -19.96 -27.0205
rfingers 7.12502
rthumb 6.37843 -56.9044
lclavicle 8.29926e-015 -3.97569e-015
lhumerus -20.0248 -7.15724 92.7117
lradius 19.5566
lwrist 4.02692
lhand -26.203 -4.16458
lfingers 7.12502
lthumb 0.349725 25.8149
rfemur -12.522 -3.63285 19.9304
rtibia 20.5741
rfoot -13.0342 -0.354694
rtoes 18.2162
lfemur -10.7555 6.81829 -18.0136
ltibia 17.5788
lfoot -10.999 4.02462
ltoes 2.93699
3
root 0.397817 17.6083 -13.9033 6.07808 -1.16835 -1.35732
lowerback -3.00077 -0.798726 0.33822
upperback 3.27905 -1.16291 1.65782
thorax 5.10129 -0.598569 1.44056
lowerneck -12.4275 0.762555 -1.87592
upperneck 34.9976 1.72541 -0.291072
head 13.974 0.448971 0.475126
rclavicle -4.47266e-015 1.35174e-014
rhumerus -24.0377 -13.6208 -83.1068
rradius 23.9922
rwrist 31.81
rhand -19.9126 -27.0113
rfingers 7.12502
rthumb 6.42414 -56.8939
lclavicle -4.47266e-015 1.35174e-014
lhumerus -20.0329 -7.18447 92.7277
lradius 19.5781
lwrist 4.09859
lhand -26.2326 -4.17025
lfingers 7.12502
lthumb 0.321092 25.8092
rfemur -12.5033 -3.65455 19.9323
rtibia 20.5687
rfoot -13.0318 -0.334002
rtoes 18.1918
lfemur -10.7475 6.80783 -18.011
ltibia 17.5943
lfoot -10.9958 4.04516
ltoes 2.86681
4
root 0.397313 17.6081 -13.9042 6.0774 -1.15785 -1.37101
lowerback -2.9933 -0.791885 0.350113
upperback 3.27034 -1.15413 1.65774
thorax 5.08745 -0.593726 1.43458
lowerneck -12.4004 0.761012 -1.87912
upperneck 34.985 1.72327 -0.290685
head 13.9623 0.448092 0.475286
rclavicle -7.25564e-015 6.75868e-015
rhumerus -24.0416 -13.6145 -83.112
rradius 23.9969
rwrist 31.7994
rhand -19.9083 -27.0492
rfingers 7.12502
rthumb 6.42835 -56.9317
lclavicle -7.25564e-015 6.75868e-015
lhumerus -20.0499 -7.2329 92.7403
lradius 19.6016
lwrist 4.12293
lhand -26.1964 -4.18139
lfingers 7.12502
lthumb 0.356102 25.7981
rfemur -12.5028 -3.63279 19.9489
rtibia 20.565
rfoot -13.0296 -0.363291
rtoes 18.1876
lfemur -10.7614 6.80098 -17.9946
ltibia 17.6073
lfoot -10.9966 4.04283
ltoes 2.85991
5
root 0.397057 17.6079 -13.9047 6.07009 -1.14841 -1.37653
lowerback -2.98611 -0.78839 0.352426
upperback 3.26707 -1.14939 1.65707
thorax 5.07974 -0.591254 1.43303
lowerneck -12.3896 0.762771 -1.88153
upperneck 34.9803 1.72793 -0.294735
head 13.9577 0.449451 0.474709
rclavicle -1.66979e-014 7.95139e-015
rhumerus -24.0437 -13.5828 -83.1229
rradius 24.0047
rwrist 31.776
rhand -19.9003 -27.0661
rfingers 7.12502
rthumb 6.43606 -56.9483
lclavicle -1.66979e-014 7.95139e-015
lhumerus -20.0587 -7.27485 92.7549
lradius 19.6234
lwrist 4.16004
lhand -26.1876 -4.18062
lfingers 7.12502
lthumb 0.364523 25.7988
rfemur -12.4953 -3.62868 19.9555
rtibia 20.5646
rfoot -13.0292 -0.374841
rtoes 18.1722
lfemur -10.7624 6.79275 -17.9872
ltibia 17.6167
lfoot -10.9955 4.04594
ltoes 2.85895
6
root 0.39684 17.6077 -13.9052 6.0616 -1.13842 -1.37824
lowerback -2.97647 -0.78505 0.351856
upperback 3.26215 -1.1446 1.6557
thorax 5.06896 -0.588845 1.43242
lowerneck -12.377 0.765331 -1.88322
upperneck 34.9779 1.73373 -0.299219
head 13.9538 0.45132 0.473998
rclavicle 1.75924e-014 -6.36111e-015
rhumerus -24.0474 -13.5527 -83.1317
rradius 24.0095
rwrist 31.7569
rhand -19.8963 -27.0846
rfingers 7.12502
rthumb 6.43994 -56.9667
lclavicle 1.75924e-014 -6.36111e-015
lhumerus -20.0712 -7.31631 92.768
lradius 19.6443
lwrist 4.20092
lhand -26.1961 -4.19786
lfingers 7.12502
lthumb 0.356326 25.7816
rfemur -12.4874 -3.62791 19.9575
rtibia 20.5667
rfoot -13.0307 -0.383326
rtoes 18.1571
lfemur -10.7608 6.78586 -17.9842
ltibia 17.6237
lfoot -10.9939 4.04751
ltoes 2.86134
